<svg xmlns="http://www.w3.org/2000/svg" fill="none" viewBox="0 0 111 110" height="110" width="111">
<path fill="#004250" d="M51.6804 9.93396C51.6804 16.0472 51.9746 19.8679 52.4445 19.8679C52.9145 19.8679 53.2087 16.0472 53.2087 9.93396C53.2087 3.82075 52.9145 0 52.4445 0C51.9746 0 51.6804 3.82075 51.6804 9.93396ZM64.0848 10.0715C61.2108 14.2675 58.3384 19.9031 58.8252 20.3906C59.2187 20.7834 59.6382 20.1652 64.2659 12.3724C67.567 6.81317 67.4387 5.17559 64.0848 10.0715ZM85.303 12.1164C85.303 12.4763 84.1201 14.3202 82.6735 16.2145L80.0441 19.6578L81.8712 20.6359C82.876 21.1731 84.1843 22.8328 84.7788 24.3229L85.8593 27.0326L87.1828 24.2427C87.911 22.7083 89.1619 21.2449 89.9612 20.9904C91.731 20.4288 91.8074 19.615 90.2142 18.293C89.5532 17.7443 88.3428 15.983 87.5244 14.379C86.0839 11.557 85.303 10.7608 85.303 12.1164ZM40.2181 13.8556C40.2181 15.1241 43.2816 19.8679 44.1015 19.8679C45.1476 19.8679 44.9879 19.3666 42.8827 16.0319C40.9112 12.908 40.2181 12.3426 40.2181 13.8556ZM25.9277 30.5844C22.23 34.4166 19.1023 37.8316 18.9785 38.1739C18.7485 38.8097 23.2249 44.5553 35.0417 58.7907C39.1552 63.7454 41.4377 67.0955 40.9991 67.5341C40.6078 67.9253 34.7858 68.3089 28.0612 68.3869C20.5626 68.474 15.4459 68.8515 14.8292 69.3627C14.2767 69.8212 12.2846 70.3064 10.4009 70.4402C7.75851 70.6281 6.81173 71.0614 6.25084 72.3383C5.8489 73.2553 4.56742 74.1845 3.37687 74.4221C0.336316 75.0304 -1.01699 78.1573 0.861287 80.2327C1.62391 81.0748 2.68837 81.7641 3.2271 81.7641C3.77041 81.7641 4.31296 82.8561 4.44592 84.217C4.74623 87.2958 8.36142 89.9451 16.7411 93.2264C24.9114 96.4259 28.0215 96.701 38.1236 95.1161C47.2552 93.6841 52.793 93.9905 49.7593 95.7588C48.9248 96.2455 46.1785 97.5171 43.6568 98.5846C39.3485 100.408 39.0581 100.693 38.838 103.321C38.5217 107.093 40.3663 108.049 47.042 107.572C53.5189 107.108 57.5727 105.269 64.6709 99.5696C67.823 97.0387 71.6056 94.3351 73.0766 93.5618C76.7949 91.6064 83.1068 91.7783 88.1762 93.9737C92.826 95.9865 99.9281 103.144 101.448 107.347C102.526 110.327 104.407 110.977 104.407 108.369C104.407 103.206 97.5867 95.3629 90.0216 91.8257C86.5279 90.1919 84.5709 89.7999 79.9539 89.8076C73.2095 89.8198 71.5987 90.5442 64.7832 96.6253C57.951 102.721 54.9142 104.55 49.9847 105.541C44.1519 106.712 41.7464 106.06 41.7464 103.305C41.7464 101.462 42.3348 100.916 46.2648 99.1118C50.6572 97.096 58.4553 89.7915 57.3526 88.7263C57.0867 88.4695 56.0398 89.3277 55.025 90.6336C53.2522 92.9169 53.0535 92.9788 49.8571 92.2475C47.3652 91.6774 44.6777 91.7997 39.1231 92.7388C29.4772 94.368 26.6223 94.3176 20.9837 92.4179C15.1494 90.4525 5.83132 85.8026 5.83132 84.8559C5.83132 83.313 7.52697 83.3176 13.2428 84.8773C21.0845 87.0169 39.4539 87.9323 39.4539 86.1832C39.4539 85.2784 37.6666 84.9567 30.4752 84.5662C25.5365 84.298 19.2613 83.5897 16.5294 82.9921C9.61234 81.4791 2.63564 78.7442 2.98486 77.682C3.43647 76.3096 9.81102 76.2126 16.7396 77.4734C27.5829 79.4464 31.5656 79.691 36.784 78.7067C44.4866 77.2533 43.3962 76.4502 34.4113 76.9591C28.318 77.3045 23.9944 77.06 17.1988 75.9864C12.2074 75.1978 8.12912 74.3702 8.13524 74.1463C8.14211 73.9232 8.44548 73.2698 8.80998 72.6936C9.35558 71.8324 10.6073 71.7958 15.8669 72.4843C27.4201 73.998 37.9256 73.943 37.9256 72.3681C37.9256 71.604 36.269 71.4496 30.6891 71.6941C23.0217 72.0296 16.249 71.3739 16.8764 70.3584C17.0842 70.0229 20.4434 69.8976 24.3421 70.0802C28.2408 70.2629 34.1148 70.107 37.3969 69.7341L43.3626 69.0555L47.9498 73.9583C53.2056 79.5771 52.6791 79.6657 58.67 72.158L61.9803 68.0094L67.337 68.0262C75.0244 68.0499 85.2311 70.5189 91.6668 73.9125C95.3325 75.845 99.2411 78.8802 103.509 83.1082C107.012 86.5798 110.194 89.2253 110.579 88.9869C113.457 87.2079 98.5663 73.7543 89.5478 69.9863C85.5192 68.3036 78.6816 67.045 70.8873 66.5514L63.7302 66.099L74.8975 52.7264C81.039 45.3714 86.0648 39.003 86.0656 38.5736C86.0664 38.1449 82.9654 34.7062 79.1753 30.932L72.2834 24.0707L52.4674 23.8438L32.6522 23.6168L25.9277 30.5844ZM59.7039 30.566C63.0463 33.9283 66.0005 36.6792 66.2695 36.6792C66.5377 36.6792 67.5296 34.3577 68.4733 31.5212C69.417 28.6847 70.4953 26.0369 70.8689 25.6372C72.0549 24.3695 71.63 26.4931 69.6379 31.7856C68.5872 34.577 67.7275 36.9925 67.7275 37.1522C67.7275 37.3127 71.3381 37.4434 75.7511 37.4434C80.5905 37.4434 83.7747 37.7467 83.7747 38.2075C83.7747 38.6706 80.459 38.9717 75.3568 38.9717H66.9389L65.8232 41.4552C64.7916 43.7514 59.8774 56.9766 54.727 71.3174C53.5449 74.6078 52.3933 77.4856 52.1664 77.7118C51.9402 77.9388 51.5443 77.1372 51.2876 75.9321C51.0308 74.727 49.5698 70.8176 48.0415 67.2452C46.5124 63.6728 43.3137 55.9358 40.9333 50.0519L36.6044 39.3538L28.4769 39.1367C17.908 38.8548 17.7337 37.4434 28.2683 37.4434H36.1872L34.7857 31.5625C32.3779 21.4551 33.8115 24.3466 37.393 36.8221C37.4756 37.111 40.9211 34.4456 45.0498 30.9C49.1785 27.3543 52.7968 24.4528 53.091 24.4528C53.3859 24.4528 56.3615 27.2038 59.7039 30.566ZM48.2218 29.28C45.6894 31.4585 42.4227 34.1698 40.9624 35.306L38.3077 37.3715L51.1882 37.4075L64.0688 37.4434L58.5577 31.3302C55.5263 27.9679 52.997 25.2399 52.9366 25.2682C52.8762 25.2964 50.7542 27.1014 48.2218 29.28ZM7.11662 30.7334L4.96401 33.7884L6.59853 34.9331C7.49793 35.5636 8.51808 36.8152 8.86653 37.7162C9.48702 39.3239 9.50918 39.3255 10.0685 37.8255C10.3818 36.9849 11.3065 35.7561 12.1241 35.0959C13.5859 33.9145 13.5768 33.8435 11.5877 30.9129C10.4751 29.2731 9.49848 27.8747 9.41748 27.8051C9.33648 27.7348 8.30106 29.053 7.11662 30.7334ZM37.9256 39.3392C37.9256 39.5417 40.549 45.9889 43.7553 53.6671C46.961 61.3452 50.1712 69.2481 50.8872 71.228L52.19 74.8294L58.5669 57.8554C62.0743 48.5205 65.0912 40.4526 65.2715 39.9269C65.5252 39.1856 62.4961 38.9717 51.7621 38.9717C44.1519 38.9717 37.9256 39.1375 37.9256 39.3392ZM64.4363 76.5495C62.2547 78.3315 61.3086 78.7075 60.6538 78.0526C60.1731 77.572 59.247 77.1914 58.5959 77.2059C57.8394 77.2235 58.0824 77.6048 59.2699 78.2628L61.1283 79.2921L58.1237 80.8762C56.4708 81.7481 55.4812 82.4755 55.9244 82.4946C56.8957 82.5351 63.4452 78.453 66.4491 75.9336C67.6366 74.938 68.3243 74.1341 67.9774 74.1486C67.6297 74.1623 66.0364 75.2428 64.4363 76.5495ZM52.4445 83.2924C51.8141 83.6997 51.6421 84.0329 52.0624 84.0329C52.4827 84.0329 53.3424 83.6997 53.9728 83.2924C54.6032 82.8851 54.7752 82.5519 54.3549 82.5519C53.9346 82.5519 53.0749 82.8851 52.4445 83.2924Z" clip-rule="evenodd" fill-rule="evenodd"></path>
</svg>
