<svg width="147" height="24" viewBox="0 0 147 24" fill="none" xmlns="http://www.w3.org/2000/svg">
<g clip-path="url(#clip0)">
<path d="M94.1092 9.24002C92.7557 9.24002 91.4886 10.0943 90.5805 11.4781H90.5373L90.8529 9.44931H89.9881C89.8583 10.3676 89.668 11.5849 89.4172 12.8962L87.3848 23.5742H88.2929L89.1059 19.2475H89.1491C89.7795 19.5563 90.4785 19.7032 91.1816 19.6746C94.4162 19.6746 96.7644 15.8732 96.7644 12.4862C96.7514 10.8503 96.0249 9.24002 94.1092 9.24002ZM91.2551 18.893C90.5546 18.9215 89.8638 18.7236 89.2875 18.3292L89.9448 14.8823C90.5156 11.854 92.3967 10.0345 93.8368 10.0345C95.2768 10.0345 95.8044 11.3714 95.8044 12.563C95.8044 15.1258 93.9406 18.893 91.2681 18.893H91.2551ZM97.7071 16.6591C97.7071 18.453 98.6369 19.7088 100.181 19.7088C101.513 19.7088 102.806 19.0169 103.969 16.8044H104.008C103.864 17.6962 103.78 18.5966 103.757 19.4995H104.643C104.625 17.971 104.77 16.4448 105.076 14.9464L106.153 9.5561C105.489 9.35147 104.798 9.252 104.103 9.26138C100.181 9.24002 97.7071 13.208 97.7071 16.6591ZM104.388 13.8786C103.904 16.4712 102.04 18.9143 100.393 18.9143C99.0174 18.9143 98.6369 17.744 98.6628 16.4285C98.6844 13.2721 100.968 10.0558 103.887 10.0558C104.301 10.0355 104.717 10.0846 105.115 10.201L104.388 13.8786ZM109.4 11.6447H109.361C109.487 10.7649 109.573 10.0985 109.634 9.44931H108.808C108.703 10.5501 108.541 11.645 108.324 12.7296L107.026 19.4781H107.934L108.907 14.3783C109.34 12.1872 110.81 10.201 112.142 10.201C112.255 10.1933 112.368 10.2004 112.479 10.2224L112.67 9.26138C112.566 9.26138 112.419 9.24002 112.289 9.24002C111.022 9.24002 110.014 10.3078 109.4 11.6447ZM115.485 18.8716C114.849 18.8716 114.577 18.5171 114.577 17.932C114.589 17.3487 114.659 16.7679 114.784 16.1978L115.909 10.2181H118.296L118.464 9.44504H116.077L116.51 7.25391L115.498 7.64686L115.156 9.44504H113.677L113.53 10.2181H114.987L113.846 16.1978C113.699 16.7996 113.621 17.4156 113.612 18.0345C113.585 18.432 113.717 18.8242 113.98 19.1264C114.243 19.4285 114.616 19.6162 115.018 19.649C115.107 19.6575 115.197 19.6575 115.286 19.649C115.623 19.6456 115.957 19.5968 116.28 19.5038L116.211 18.7947C115.975 18.8581 115.729 18.8841 115.485 18.8716ZM124.207 9.24002C122.81 9.24002 121.543 10.0345 120.652 11.4952H120.609L120.908 9.44931H120.043C119.96 10.2224 119.831 11.2048 119.61 12.3965L118.257 19.4781H119.165L120.159 14.1519C120.592 11.7259 122.529 10.0558 123.883 10.0558C125.128 10.0558 125.552 10.8076 125.552 11.854C125.546 12.3442 125.497 12.833 125.405 13.3148L124.22 19.4781H125.128L126.296 13.3148C126.409 12.8065 126.473 12.2888 126.486 11.7686C126.469 9.86789 125.202 9.24002 124.207 9.24002ZM132.899 9.24002C130.002 9.24002 127.948 13.0201 127.948 15.9031C127.948 17.8252 128.774 19.6661 131.143 19.6661C132.121 19.6835 133.084 19.4225 133.915 18.9143L133.639 18.201C132.935 18.6377 132.121 18.8701 131.29 18.8716C130.777 18.8865 130.275 18.724 129.87 18.4121C129.465 18.1002 129.183 17.6585 129.072 17.1631C128.89 16.3394 128.861 15.49 128.986 14.6559C132.307 14.6559 135.269 13.964 135.269 11.4183C135.269 10.3078 134.568 9.24002 132.899 9.24002ZM134.318 11.4781C134.318 13.46 131.779 13.8999 129.128 13.8786C129.764 11.7045 131.161 10.0345 132.726 10.0345C133.678 10.0345 134.313 10.5342 134.313 11.4568L134.318 11.4781ZM141.232 10.2224L141.423 9.26138C141.314 9.26138 141.167 9.24002 141.042 9.24002C139.771 9.24002 138.759 10.3078 138.145 11.6447H138.101C138.227 10.7649 138.313 10.0985 138.378 9.44931H137.539C137.453 10.3292 137.306 11.4568 137.051 12.7296L135.753 19.4781H136.674L137.647 14.3783C138.08 12.1872 139.55 10.201 140.886 10.201C141.002 10.1931 141.118 10.2003 141.232 10.2224ZM145.059 10.0345C145.569 10.0482 146.066 10.1956 146.499 10.4616L146.837 9.6885C146.334 9.3893 145.754 9.24091 145.167 9.26138C143.368 9.26138 142.075 10.5427 142.075 12.1017C142.102 12.6132 142.259 13.1097 142.533 13.5446C142.807 13.9794 143.188 14.3383 143.641 14.5876C144.592 15.1941 145.016 15.8006 145.016 16.8044C145.014 17.3602 144.789 17.8925 144.39 18.2848C143.991 18.677 143.451 18.8973 142.888 18.8973H142.776C142.139 18.893 141.519 18.6963 140.999 18.3335L140.64 19.0852C141.244 19.4897 141.96 19.7014 142.69 19.6917C144.445 19.6917 145.946 18.5855 145.946 16.5566C145.925 16.0309 145.771 15.5187 145.498 15.0666C145.225 14.6146 144.843 14.237 144.385 13.9683C143.559 13.4045 143.01 12.8791 143.01 11.9394C143.01 11.6887 143.061 11.4406 143.158 11.2091C143.256 10.9777 143.399 10.7675 143.579 10.5907C143.759 10.4138 143.972 10.2736 144.207 10.1782C144.442 10.0827 144.693 10.0339 144.947 10.0345H145.059Z" fill="#8E8EB5"/>
<path d="M18.8603 4.32546L17.0873 4.29129C17.0873 4.29129 15.6775 2.94158 15.5391 2.80063C15.4842 2.75053 15.4145 2.7191 15.3402 2.71094V23.3965L21.6452 21.8631L19.0505 4.51766C19.0432 4.47 19.0208 4.42583 18.9867 4.39135C18.9526 4.35688 18.9084 4.33383 18.8603 4.32546Z" fill="#8E8EB5"/>
<path fill-rule="evenodd" clip-rule="evenodd" d="M18.9798 4.38715C19.0174 4.42191 19.0422 4.46793 19.0506 4.51808L21.6452 21.8592L15.3402 23.3926L0.749695 20.9281C0.749695 20.9281 2.47946 7.63607 2.57027 7.16624C2.65676 6.53837 2.67838 6.51701 3.34434 6.31199L5.5714 5.60724C5.77949 4.43172 6.22035 3.30829 6.86872 2.30132C7.79415 0.853374 8.94011 0.0290284 10.0861 -0.000870105C10.3611 -0.0165456 10.6362 0.02862 10.8913 0.131332C11.1465 0.234043 11.3751 0.39171 11.5607 0.59283L11.6472 0.682525H11.8288C12.7153 0.682525 13.4505 1.18226 13.9564 2.13474C14.1004 2.39653 14.2191 2.6711 14.311 2.95481L15.0202 2.73698C15.1033 2.70951 15.1916 2.70101 15.2785 2.7121C15.3654 2.7232 15.4486 2.75361 15.5219 2.80105C15.6602 2.942 17.07 4.29171 17.07 4.29171L18.843 4.32588C18.8942 4.33085 18.9423 4.35239 18.9798 4.38715ZM12.4256 3.52289L13.5629 3.17692L13.5759 3.16838C13.377 2.59603 12.9661 1.61365 12.0796 1.45989C12.3133 2.12301 12.4303 2.82076 12.4256 3.52289ZM9.26012 4.49245L11.6991 3.74926C11.7295 2.99503 11.5999 2.24285 11.3185 1.54104C11.0036 1.67868 10.722 1.88108 10.4926 2.13474C9.90098 2.8148 9.47888 3.62227 9.26012 4.49245ZM10.8256 0.938798C10.619 0.810281 10.3775 0.74765 10.1336 0.759407H10.1207C8.34767 0.814933 6.80386 3.54851 6.41034 5.37233L8.40821 4.74018C8.62009 3.58292 9.14281 2.50312 9.92175 1.61365C10.1805 1.338 10.4865 1.10955 10.8256 0.938798ZM11.1023 10.2498L11.8375 7.53762C11.2458 7.31267 10.6079 7.23208 9.97797 7.3027C6.76494 7.50345 5.30761 9.72876 5.44599 11.9114C5.54078 13.3733 6.41286 13.9839 7.17696 14.5189C7.77237 14.9358 8.30221 15.3068 8.34767 15.9989V16.0502C8.35001 16.2881 8.2574 16.5175 8.08988 16.6885C7.92236 16.8596 7.6934 16.9586 7.45251 16.9642C6.43196 17.0283 5.13463 16.0715 5.13463 16.0715L4.64165 18.1388C5.12359 18.5759 5.69237 18.9091 6.3118 19.1172C6.93124 19.3253 7.58775 19.4037 8.23956 19.3476C10.1769 19.228 11.5218 17.6989 11.3791 15.4607C11.2693 13.7437 10.0438 12.9679 9.07541 12.3548C8.44186 11.9537 7.91835 11.6223 7.88928 11.1425C7.87198 10.9204 7.88928 10.032 9.31201 9.94232C9.92444 9.91313 10.5358 10.0181 11.1023 10.2498Z" fill="#8E8EB5"/>
<path d="M30.2334 13.3319C29.4983 12.9389 29.1221 12.6058 29.1221 12.153C29.1221 11.5721 29.6453 11.2006 30.4626 11.2006C31.0827 11.2128 31.6941 11.3464 32.2616 11.5935L32.9319 9.56467C32.9319 9.56467 32.3178 9.09057 30.5059 9.09057C27.9804 9.09057 26.2334 10.5172 26.2334 12.5075C26.2334 13.6437 27.0507 14.5107 28.1361 15.1343C29.001 15.6298 29.3296 15.9886 29.3296 16.4969C29.3296 17.0051 28.8972 17.4707 28.0756 17.4707C27.251 17.4355 26.444 17.2242 25.7101 16.8514L24.9966 18.8759C25.8636 19.3633 26.8491 19.607 27.8464 19.5807C30.441 19.5807 32.3048 18.2993 32.3048 16.0441C32.3178 14.8567 31.3621 13.9726 30.2334 13.3319ZM40.5774 9.06921C39.983 9.07228 39.3973 9.20977 38.8651 9.47112C38.3329 9.73248 37.8683 10.1108 37.5071 10.577H37.4638L38.5882 4.84497H35.6995L32.8886 19.4098H35.7773L36.746 14.4296C37.1222 12.5503 38.1082 11.3885 39.0293 11.3885C39.6779 11.3885 39.9287 11.8156 39.9287 12.4435C39.9279 12.8735 39.8859 13.3026 39.8033 13.7248L38.7136 19.4312H41.6023L42.7353 13.5369C42.8603 12.9235 42.9298 12.3003 42.9428 11.6747C42.9428 10.0431 42.0866 9.06921 40.5774 9.06921ZM49.477 9.06921C46.0175 9.06921 43.6996 12.1701 43.6996 15.6255C43.6996 17.838 45.0791 19.6191 47.6781 19.6191C51.09 19.6191 53.3949 16.5994 53.3949 13.0628C53.3949 11.0126 52.1798 9.06921 49.477 9.06921ZM48.0543 17.4195C47.0683 17.4195 46.6489 16.5951 46.6489 15.5615C46.6489 13.9256 47.5137 11.2561 49.0792 11.2561C50.1041 11.2561 50.4414 12.1103 50.4414 12.9646C50.4414 14.7371 49.5808 17.4195 48.0543 17.4195ZM60.7853 9.06921C58.835 9.06921 57.728 10.7777 57.728 10.7777H57.6847L57.8534 9.2486H55.2977C55.1723 10.2822 54.9431 11.854 54.7139 13.0329L52.703 23.4931H55.5917L56.3874 19.2774H56.4523C56.9744 19.5464 57.5591 19.6746 58.1474 19.649C61.5421 19.649 63.7692 16.2321 63.7692 12.7382C63.7605 10.7862 62.9 9.06921 60.7853 9.06921ZM58.022 17.4664C57.5853 17.4697 57.1618 17.3182 56.8285 17.0393L57.3085 14.3741C57.6458 12.593 58.6058 11.4141 59.5918 11.4141C60.4567 11.4141 60.7464 12.2214 60.7464 12.9859C60.7464 14.8567 59.635 17.4664 58.022 17.4664ZM67.886 4.97311C67.6691 4.97255 67.4541 5.01419 67.2535 5.09567C67.0529 5.17715 66.8704 5.29686 66.7166 5.44797C66.5628 5.59909 66.4407 5.77864 66.3571 5.97638C66.2736 6.17412 66.2303 6.38618 66.2297 6.60044V6.63034C66.201 6.97789 66.3126 7.32255 66.5403 7.58905C66.768 7.85555 67.0932 8.02222 67.4449 8.05266H67.6352C67.8499 8.06066 68.0641 8.02678 68.2655 7.95295C68.4669 7.87912 68.6516 7.76679 68.8091 7.6224C68.9665 7.478 69.0936 7.30436 69.183 7.11142C69.2725 6.91847 69.3225 6.71 69.3303 6.49794V6.40824C69.3492 6.0493 69.2233 5.6976 68.9801 5.43021C68.7369 5.16281 68.3964 5.00151 68.033 4.98165L67.886 4.97311ZM63.8427 19.4098H66.7357L68.7033 9.29559H65.793L63.8427 19.4098ZM76.0548 9.27423H74.0439L74.1477 8.80013C74.3164 7.82629 74.9002 6.95923 75.8775 6.95923C76.1904 6.95841 76.5015 7.00744 76.7986 7.10445L77.3651 4.8706C76.8658 4.67802 76.3305 4.59354 75.7953 4.62287C74.767 4.59225 73.7623 4.93062 72.9672 5.57535C72.0494 6.42795 71.4569 7.56673 71.2893 8.80013L71.2071 9.27423H69.8666L69.4341 11.4098H70.7747L69.2482 19.3928H72.1369L73.6634 11.4397H75.6569L76.0548 9.27423ZM83.0041 9.30413C83.0041 9.30413 81.2008 13.8017 80.4095 16.2534H80.3662C80.31 15.4632 79.657 9.30413 79.657 9.30413H76.6299L78.3597 18.594C78.3831 18.6729 78.3899 18.7558 78.3795 18.8373C78.369 18.9189 78.3417 18.9975 78.2992 19.0681C77.9192 19.7516 77.3814 20.337 76.7294 20.7766C76.2262 21.1212 75.6758 21.393 75.0948 21.5839L75.8905 24.0014C76.9487 23.7242 77.9206 23.1914 78.7186 22.451C80.0159 21.2294 81.2527 19.35 82.5068 16.783L86.0225 9.30413H83.0041Z" fill="#8E8EB5"/>
</g>
<defs>
<clipPath id="clip0">
<rect width="146.087" height="24" fill="white" transform="translate(0.749695)"/>
</clipPath>
</defs>
</svg>
