<svg width="129" height="26" viewBox="0 0 129 26" fill="none" xmlns="http://www.w3.org/2000/svg">
<path d="M62.7522 9.91956C60.0249 9.91956 57.8658 11.9652 57.8658 14.8064C57.8658 17.5339 60.0249 19.6932 62.7522 19.6932C65.4795 19.6932 67.6386 17.6476 67.6386 14.8064C67.6386 11.8516 65.4795 9.91956 62.7522 9.91956ZM62.7522 17.6476C61.2749 17.6476 60.0249 16.3975 60.0249 14.6928C60.0249 12.988 61.2749 11.7379 62.7522 11.7379C64.2295 11.7379 65.4795 12.8744 65.4795 14.6928C65.4795 16.3975 64.2295 17.6476 62.7522 17.6476ZM52.1839 9.91956C49.4566 9.91956 47.2975 11.9652 47.2975 14.8064C47.2975 17.5339 49.4566 19.6932 52.1839 19.6932C54.9112 19.6932 57.0703 17.6476 57.0703 14.8064C57.0703 11.8516 54.9112 9.91956 52.1839 9.91956ZM52.1839 17.6476C50.7066 17.6476 49.4566 16.3975 49.4566 14.6928C49.4566 12.988 50.7066 11.7379 52.1839 11.7379C53.6612 11.7379 54.9112 12.8744 54.9112 14.6928C54.9112 16.3975 53.6612 17.6476 52.1839 17.6476ZM39.5702 11.397V13.4426H44.4566C44.3429 14.5791 43.8884 15.4883 43.3202 16.0565C42.6384 16.7384 41.502 17.5339 39.5702 17.5339C36.5019 17.5339 34.2292 15.1473 34.2292 12.0789C34.2292 9.01038 36.6156 6.62378 39.5702 6.62378C41.1611 6.62378 42.4111 7.30567 43.3202 8.1012L44.7975 6.62378C43.5475 5.4873 41.9565 4.57812 39.6838 4.57812C35.5928 4.57812 32.0701 7.98755 32.0701 12.0789C32.0701 16.1702 35.5928 19.5796 39.6838 19.5796C41.9565 19.5796 43.5475 18.8977 44.9111 17.4203C46.2748 16.0565 46.7293 14.1245 46.7293 12.6471C46.7293 12.1925 46.7293 11.7379 46.6157 11.397H39.5702ZM91.1616 12.988C90.7071 11.8516 89.5707 9.91956 87.0707 9.91956C84.5706 9.91956 82.5252 11.8516 82.5252 14.8064C82.5252 17.5339 84.5706 19.6932 87.2979 19.6932C89.457 19.6932 90.8207 18.3295 91.2752 17.5339L89.6843 16.3975C89.1161 17.193 88.4343 17.7612 87.2979 17.7612C86.1615 17.7612 85.4797 17.3066 84.9115 16.2838L91.3889 13.5563L91.1616 12.988ZM84.5706 14.5791C84.5706 12.7607 86.0479 11.7379 87.0707 11.7379C87.8661 11.7379 88.6616 12.1925 88.8889 12.7607L84.5706 14.5791ZM79.2297 19.2387H81.3888V5.03271H79.2297V19.2387ZM75.8205 10.9424C75.2523 10.3741 74.3432 9.80591 73.2069 9.80591C70.8205 9.80591 68.5477 11.9652 68.5477 14.6928C68.5477 17.4203 70.7068 19.4659 73.2069 19.4659C74.3432 19.4659 75.2523 18.8977 75.7069 18.3295H75.8205V19.0114C75.8205 20.8297 74.7978 21.8525 73.2069 21.8525C71.9569 21.8525 71.0478 20.9434 70.8205 20.1478L69.0023 20.9434C69.5705 22.1935 70.9341 23.7846 73.3205 23.7846C75.8205 23.7846 77.866 22.3071 77.866 18.7841V10.1469H75.8205V10.9424ZM73.3205 17.6476C71.8432 17.6476 70.5932 16.3975 70.5932 14.6928C70.5932 12.988 71.8432 11.7379 73.3205 11.7379C74.7978 11.7379 75.9342 12.988 75.9342 14.6928C75.9342 16.3975 74.7978 17.6476 73.3205 17.6476ZM101.048 5.03271H95.9344V19.2387H98.0935V13.8972H101.048C103.434 13.8972 105.707 12.1925 105.707 9.46497C105.707 6.73743 103.434 5.03271 101.048 5.03271ZM101.162 11.8516H98.0935V6.96472H101.162C102.753 6.96472 103.662 8.32849 103.662 9.35132C103.548 10.6014 102.639 11.8516 101.162 11.8516ZM114.23 9.80591C112.639 9.80591 111.048 10.4878 110.48 11.9652L112.412 12.7607C112.866 11.9652 113.548 11.7379 114.344 11.7379C115.48 11.7379 116.503 12.4198 116.616 13.5563V13.6699C116.276 13.4426 115.366 13.1017 114.457 13.1017C112.412 13.1017 110.366 14.2382 110.366 16.2838C110.366 18.2158 112.071 19.4659 113.889 19.4659C115.366 19.4659 116.048 18.7841 116.616 18.1022H116.73V19.2387H118.776V13.7836C118.548 11.2833 116.616 9.80591 114.23 9.80591ZM114.003 17.6476C113.321 17.6476 112.298 17.3066 112.298 16.3975C112.298 15.261 113.548 14.92 114.571 14.92C115.48 14.92 115.935 15.1473 116.503 15.3746C116.276 16.7384 115.139 17.6476 114.003 17.6476ZM125.935 10.1469L123.548 16.2838H123.435L120.935 10.1469H118.662L122.412 18.7841L120.253 23.5573H122.412L128.207 10.1469H125.935ZM106.844 19.2387H109.003V5.03271H106.844V19.2387Z" fill="#8E8EB5"/>
<path d="M1.22645 0.320312C0.934115 0.612648 0.83667 1.09987 0.83667 1.68454V23.2199C0.83667 23.8046 1.03156 24.2918 1.3239 24.5841L1.42134 24.6816L13.5045 12.5984V12.4035L1.22645 0.320312Z" fill="#8E8EB5"/>
<path d="M17.3253 16.6891L13.3301 12.6938V12.4015L17.3253 8.40625L17.4228 8.50369L22.1976 11.2322C23.5618 12.0117 23.5618 13.2785 22.1976 14.0581L17.3253 16.6891Z" fill="#8D8DB5"/>
<path d="M17.11 16.5927L13.0173 12.5L0.83667 24.6806C1.3239 25.1679 2.00601 25.1679 2.88302 24.7781L17.11 16.5927Z" fill="#707094"/>
<path d="M17.11 8.40827L2.88302 0.320327C2.00601 -0.166899 1.3239 -0.0694537 0.83667 0.417772L13.0173 12.501L17.11 8.40827Z" fill="#A4A4CD"/>
<path opacity="0.2" d="M17.0126 16.4961L2.88302 24.4866C2.10346 24.9738 1.42134 24.8764 0.934115 24.4866L0.83667 24.584L0.934115 24.6815C1.42134 25.0713 2.10346 25.1687 2.88302 24.6815L17.0126 16.4961Z" fill="black"/>
</svg>
