<svg width="84" height="40" viewBox="0 0 84 40" fill="none" xmlns="http://www.w3.org/2000/svg">
<path fill-rule="evenodd" clip-rule="evenodd" d="M73.6385 20.386C73.6385 15.7838 71.4329 12.1523 67.2174 12.1523C62.9841 12.1523 60.4227 15.7838 60.4227 20.3501C60.4227 25.7613 63.4465 28.4939 67.7866 28.4939C69.9032 28.4939 71.504 28.0085 72.7136 27.3254V23.7299C71.504 24.3411 70.1167 24.7186 68.3557 24.7186C66.6304 24.7186 65.1007 24.1074 64.9051 21.986H73.6029C73.6029 21.7523 73.6385 20.8175 73.6385 20.386ZM64.8517 18.6782C64.8517 16.6467 66.079 15.8018 67.1996 15.8018C68.2846 15.8018 69.4408 16.6467 69.4408 18.6782H64.8517Z" fill="#8E8EB5"/>
<path fill-rule="evenodd" clip-rule="evenodd" d="M53.5565 12.1523C51.8134 12.1523 50.6928 12.9793 50.0703 13.5546L49.839 12.44H45.9259V33.4018L50.3726 32.449L50.3904 27.3613C51.0308 27.8287 51.9735 28.4939 53.5387 28.4939C56.7226 28.4939 59.6219 25.9052 59.6219 20.2063C59.6041 14.9928 56.6692 12.1523 53.5565 12.1523ZM52.4893 24.5389C51.4399 24.5389 50.8173 24.1613 50.3904 23.6939L50.3726 17.0243C50.8351 16.5029 51.4754 16.1434 52.4893 16.1434C54.1079 16.1434 55.2285 17.9771 55.2285 20.3321C55.2285 22.7411 54.1257 24.5389 52.4893 24.5389Z" fill="#8E8EB5"/>
<path fill-rule="evenodd" clip-rule="evenodd" d="M39.8077 11.0929L44.2722 10.1221V6.47266L39.8077 7.42546V11.0929Z" fill="#8E8EB5"/>
<path d="M44.2722 12.4609H39.8077V28.1913H44.2722V12.4609Z" fill="#8E8EB5"/>
<path fill-rule="evenodd" clip-rule="evenodd" d="M35.0225 13.7896L34.7379 12.4593H30.8959V28.1896H35.3427V17.5289C36.3921 16.1447 38.1708 16.3963 38.7222 16.5941V12.4593C38.153 12.2435 36.072 11.848 35.0225 13.7896Z" fill="#8E8EB5"/>
<path fill-rule="evenodd" clip-rule="evenodd" d="M26.1295 8.55859L21.7895 9.49343L21.7717 23.8934C21.7717 26.5541 23.7461 28.5137 26.3785 28.5137C27.8371 28.5137 28.9043 28.244 29.4913 27.9204V24.271C28.9221 24.5047 26.1117 25.3316 26.1117 22.671V16.2889H29.4913V12.4597H26.1117L26.1295 8.55859Z" fill="#8E8EB5"/>
<path fill-rule="evenodd" clip-rule="evenodd" d="M14.1053 17.0243C14.1053 16.3231 14.6745 16.0535 15.6172 16.0535C16.969 16.0535 18.6765 16.467 20.0284 17.204V12.9793C18.552 12.3861 17.0935 12.1523 15.6172 12.1523C12.0064 12.1523 9.60516 14.058 9.60516 17.24C9.60516 22.2018 16.3642 21.4108 16.3642 23.5501C16.3642 24.3771 15.6528 24.6467 14.6567 24.6467C13.1804 24.6467 11.2949 24.0355 9.80082 23.2085V27.4872C11.455 28.2063 13.127 28.5119 14.6567 28.5119C18.3564 28.5119 20.8999 26.6602 20.8999 23.4422C20.8821 18.0849 14.1053 19.0377 14.1053 17.0243Z" fill="#8E8EB5"/>
</svg>
