<svg xmlns="http://www.w3.org/2000/svg" fill="none" viewBox="0 0 110 110" height="110" width="110">
<path fill="#004250" d="M100.784 3.10033C97.1654 4.82691 94.1992 6.66441 94.1916 7.18284C94.1751 8.35778 93.8164 8.40608 98.6037 6.58442C100.83 5.73623 102.824 5.21478 103.034 5.42532C103.244 5.63586 99.049 10.1779 93.7117 15.5199C84.1221 25.1157 83.9714 25.2273 81.0542 24.8825C77.6675 24.4818 76.0959 25.8944 76.0959 29.3393C76.0959 31.056 74.9997 32.2038 69.5034 36.2403C59.2787 43.7495 57.0584 44.9992 54.7355 44.554C52.4647 44.1193 49.7366 46.0172 49.711 48.0494C49.6936 49.3752 38.3471 55.668 28.3943 59.8728C23.7653 61.828 22.0753 62.2294 20.9671 61.6348C19.0044 60.5829 16.6499 61.4695 15.6667 63.6308C15.0376 65.014 13.2332 65.9656 7.80171 67.7774C3.92534 69.0708 0.753425 70.4412 0.753425 70.8216C0.753425 71.875 2.00411 71.6841 8.89041 69.5802C14.8425 67.7616 15.3051 67.7216 16.6213 68.9146C18.6533 70.7567 21.7039 69.7704 22.9177 66.8787C23.7253 64.9551 25.0325 64.0798 30.5928 61.7382C34.2786 60.1867 40.1764 57.4331 43.6986 55.619C48.4429 53.1763 50.8072 52.3786 52.8203 52.5394C55.8205 52.7801 58.0137 51.2233 58.0137 48.8538C58.0137 47.9611 59.2983 46.6759 61.4591 45.4082C63.354 44.2959 68.1164 41.0555 72.0425 38.2068C75.9686 35.3589 79.7907 33.0286 80.5351 33.0286C81.9327 33.0286 84.3836 30.8161 84.3836 29.5551C84.3836 29.1627 86.964 26.6423 90.1186 23.9543C93.2725 21.2671 96.8874 17.8796 98.1509 16.4269C99.4144 14.9743 101.917 12.1377 103.713 10.1236L106.979 6.46217L106.573 9.74628C106.183 12.9097 107.109 15.8014 108.171 14.7374C108.98 13.9269 109.931 8.12838 109.967 3.78704C110.008 -1.12932 109.696 -1.15271 100.784 3.10033ZM15.0685 8.92224C36.2864 9.77345 84.3836 9.74478 84.3836 8.88073C84.3836 8.38495 70.2199 8.17214 43.1336 8.25968C13.4095 8.35627 5.56781 8.54115 15.0685 8.92224ZM15.4452 28.476L1.13014 28.8782L24.863 29.3551C48.7624 29.8358 58.7656 29.5325 55 28.442C52.9266 27.8421 37.5228 27.8549 15.4452 28.476ZM83.3431 54.724C84.144 93.7477 84.4574 104.598 84.8597 107.17L85.302 110H97.6506H110V75.6647V41.3295H96.534H83.0688L83.3431 54.724ZM8.66438 48.0878L0.376712 48.4984L5.65068 49.059C13.0915 49.8499 25.028 49.7442 26.3699 48.8757C27.173 48.3557 26.2644 48.1407 23.2296 48.1324C20.8804 48.1263 18.5071 48.0214 17.9556 47.8992C17.4034 47.7769 13.2226 47.8622 8.66438 48.0878ZM98.4199 51.3282C99.0083 53.4117 99.5907 53.8879 102.295 54.4916C105.727 55.2583 106.332 56.0491 104.04 56.7773C101.378 57.624 100.732 59.1061 101.719 62.1027C102.213 63.5991 102.459 64.9808 102.268 65.1725C102.076 65.3649 100.837 64.5092 99.5131 63.2708L97.1074 61.0198L94.9119 63.4376L92.7157 65.8547L92.6931 62.689C92.675 60.0154 92.3578 59.3694 90.6551 58.5386C87.6286 57.0603 87.7732 56.0197 91.1463 55.007C93.5128 54.2969 94.4245 53.5189 95.2728 51.4859C96.6327 48.2252 97.5308 48.1799 98.4199 51.3282ZM95.8838 53.6456C95.3323 54.8583 94.1427 55.7208 92.5364 56.074C90.0455 56.6219 90.0455 56.6226 91.7347 57.7462C92.8468 58.4858 93.4247 59.6268 93.4247 61.0839V63.298L95.2449 61.1805L97.0652 59.0631L99.061 60.9383L101.056 62.8135L100.214 60.5949C99.4694 58.6329 99.5726 58.2209 101.107 57.0384L102.842 55.7005L101.21 55.6839C100.312 55.6748 98.939 54.7889 98.1584 53.7158L96.739 51.7644L95.8838 53.6456ZM42.6943 63.7168C42.0516 64.3597 42.0471 90.3851 42.6868 101.511L43.1758 110H55.492H67.8082V86.6067V63.2135H55.5025C48.7338 63.2135 42.9701 63.4399 42.6943 63.7168ZM66.3014 86.984V108.491H55.4649C44.8634 108.491 44.6178 108.454 44.1733 106.793C43.9239 105.859 43.7145 96.1814 43.7092 85.2861L43.6986 65.4773H55H66.3014V86.984ZM98.3008 69.8119C99.046 72.7866 100.099 73.7782 102.513 73.7782C105.556 73.7782 105.904 75.0286 103.244 76.4065C100.676 77.7369 100.63 77.8901 101.8 81.2504C102.937 84.521 102.357 84.7889 99.4483 82.3371L96.9951 80.2694L95.2457 82.3062C92.9726 84.9541 92.6712 84.8794 92.6712 81.6662C92.6712 79.4839 92.2553 78.7534 90.4162 77.7045C87.6489 76.1273 87.8418 75.2693 91.2096 74.163C93.0246 73.5669 94.215 72.4765 95.1816 70.5265C96.8286 67.2047 97.6031 67.0273 98.3008 69.8119ZM53.4276 72.1203C52.4519 74.449 51.6435 75.1516 49.0412 75.9326C46.4381 76.7137 46.0124 77.0834 46.7266 77.9459C47.2081 78.527 48.2071 79.1948 48.9477 79.4303C49.8308 79.711 50.4719 80.9531 50.8117 83.0434L51.3301 86.2294L53.1631 84.1142L54.9962 81.999L57.5179 83.9256C58.905 84.9851 60.2145 85.8521 60.4284 85.8521C60.6432 85.8521 60.4465 84.4576 59.9922 82.7529C59.2041 79.7963 59.2666 79.5737 61.3551 77.906L63.5431 76.1582L60.6778 75.6202C58.2458 75.1629 57.6385 74.6399 56.6681 72.1663C56.0397 70.5627 55.3217 69.2542 55.0738 69.258C54.826 69.2625 54.0853 70.5507 53.4276 72.1203ZM0.00678087 92.4369C0.00979457 97.7389 0.226781 103.86 0.488219 106.038L0.96363 110H13.6837H26.4045L26.1988 96.6055L25.9932 83.2109L12.9966 83.0042L0 82.7982L0.00678087 92.4369ZM98.3875 89.5686C99.4114 92.1313 99.9689 92.5984 102.525 93.0308C105.706 93.5696 106.356 94.5272 104.04 95.263C101.512 96.0667 100.872 97.4522 101.8 100.117C102.965 103.465 102.111 103.872 99.3888 101.267L97.0803 99.058L95.5666 101.133C93.5392 103.912 92.6712 103.747 92.6712 100.587C92.6712 98.4369 92.2644 97.754 90.411 96.7941C87.3709 95.22 87.5638 94.3899 91.2254 93.2912C93.7336 92.5381 94.5126 91.837 95.4514 89.4871C96.0842 87.9032 96.7375 86.6067 96.9032 86.6067C97.0682 86.6067 97.7365 87.9394 98.3875 89.5686ZM14.7521 91.3774C15.4234 93.3561 16.1481 93.9228 18.8959 94.617L22.226 95.4584L19.7375 96.8809C17.2037 98.329 16.9799 99.4957 18.4868 103.397C19.1905 105.219 18.1206 105.044 15.4452 102.897L13.1849 101.083L11.1439 103.466L9.10212 105.85L9.05993 103.208C9.01096 100.121 8.52199 99.2293 6.21575 98.0128C3.76336 96.7187 4.12123 95.8282 7.45589 94.9287C9.90452 94.2684 10.5962 93.6225 11.6306 91.0326C12.9792 87.6572 13.5097 87.716 14.7521 91.3774ZM53.7561 90.899C52.5823 93.5613 51.859 94.2005 49.161 94.9589C45.3773 96.0214 45.1671 96.6938 48.1973 98.0377C49.4284 98.5833 50.5759 99.5455 50.7469 100.176C50.9323 100.858 51.0935 100.655 51.1455 99.6745C51.2035 98.5863 50.658 97.843 49.5377 97.4838C47.9479 96.973 47.9984 96.8862 50.3529 96.0878C51.7332 95.6192 53.4728 94.4261 54.2172 93.4368L55.5726 91.6378L56.0872 93.2633C56.3999 94.2503 57.5458 95.1362 59.0037 95.5181C61.4041 96.1474 61.4041 96.1474 59.6607 97.0892C58.2118 97.8717 57.9956 98.4369 58.3806 100.431L58.8447 102.831L56.9868 100.789L55.1288 98.7463L53.1805 101.305C50.6241 104.662 50.6558 106.274 53.2189 103.224L55.2057 100.859L57.2158 102.789C59.8867 105.352 61.2293 105.349 60.2551 102.782C59.0549 99.6202 59.3879 97.954 61.4041 97.0341C63.7638 95.9572 63.8347 94.9076 61.548 94.9076C59.0896 94.9076 57.0953 93.2278 56.048 90.2757L55.1484 87.7387L53.7561 90.899ZM96.1694 91.351C95.8251 92.7252 94.875 93.5493 92.8709 94.2118C90.1977 95.0955 90.1405 95.18 91.74 95.8946C93.0284 96.4704 93.4277 97.2869 93.4375 99.3621L93.4503 102.076L95.046 99.5802L96.6418 97.0839L98.7838 99.1395L100.925 101.195L100.241 98.8044C99.654 96.7549 99.7828 96.2931 101.143 95.5641C102.696 94.731 102.687 94.6963 100.65 93.8624C99.507 93.3946 98.1396 92.2038 97.6122 91.216L96.6531 89.4207L96.1694 91.351Z" clip-rule="evenodd" fill-rule="evenodd"></path>
</svg>
